<svg width="15" height="15" viewBox="0 0 14 9" fill="none" xmlns="http://www.w3.org/2000/svg">
    <path d="M6.99994 8.20002C6.86833 8.20078 6.73787 8.17555 6.61603 8.12578C6.4942 8.07602 6.38338 8.0027 6.28994 7.91001L0.289941 1.91001C0.196703 1.81678 0.122742 1.70609 0.0722818 1.58426C0.0218215 1.46244 -0.00415039 1.33187 -0.00415039 1.20001C-0.00415039 0.933712 0.101638 0.678318 0.289941 0.490014C0.478245 0.30171 0.73364 0.195923 0.999941 0.195923C1.26624 0.195923 1.52164 0.30171 1.70994 0.490014L6.99994 5.78001L12.2899 0.490014C12.3832 0.396776 12.4939 0.322814 12.6157 0.272354C12.7375 0.221894 12.8681 0.195923 12.9999 0.195923C13.1318 0.195923 13.2624 0.221894 13.3842 0.272354C13.506 0.322814 13.6167 0.396776 13.7099 0.490014C13.8032 0.583253 13.8771 0.693943 13.9276 0.815765C13.9781 0.937587 14.004 1.06815 14.004 1.20001C14.004 1.33187 13.9781 1.46244 13.9276 1.58426C13.8771 1.70609 13.8032 1.81678 13.7099 1.91001L7.70994 7.91001C7.6165 8.0027 7.50569 8.07602 7.38385 8.12578C7.26201 8.17555 7.13155 8.20078 6.99994 8.20002Z" fill="#8D8A8A"/>
</svg>