<svg width="15" height="15" viewBox="0 0 24 24" fill="none" xmlns="http://www.w3.org/2000/svg">
<path d="M17.2 12.0001C17.2008 12.1317 17.1755 12.2621 17.1258 12.384C17.076 12.5058 17.0027 12.6166 16.91 12.7101L10.91 18.7101C10.8168 18.8033 10.7061 18.8773 10.5843 18.9277C10.4624 18.9782 10.3319 19.0042 10.2 19.0042C9.93371 19.0042 9.67832 18.8984 9.49001 18.7101C9.30171 18.5218 9.19592 18.2664 9.19592 18.0001C9.19592 17.7338 9.30171 17.4784 9.49001 17.2901L14.78 12.0001L9.49001 6.71006C9.39678 6.61682 9.32281 6.50613 9.27235 6.38431C9.22189 6.26249 9.19592 6.13192 9.19592 6.00006C9.19592 5.8682 9.22189 5.73763 9.27235 5.61581C9.32281 5.49399 9.39678 5.3833 9.49001 5.29006C9.58325 5.19682 9.69394 5.12286 9.81577 5.0724C9.93759 5.02194 10.0682 4.99597 10.2 4.99597C10.3319 4.99597 10.4624 5.02194 10.5843 5.0724C10.7061 5.12286 10.8168 5.19682 10.91 5.29006L16.91 11.2901C17.0027 11.3835 17.076 11.4943 17.1258 11.6162C17.1755 11.738 17.2008 11.8685 17.2 12.0001Z" fill="#8D8A8A"/>
</svg>
