<svg width="72" height="78" viewBox="0 0 72 78" fill="none" xmlns="http://www.w3.org/2000/svg">
<path d="M71.1225 21.8775L50.1225 0.877501C49.8437 0.598998 49.5127 0.378156 49.1486 0.227592C48.7844 0.0770274 48.3941 -0.000308958 48 9.27595e-07H12C10.4087 9.27595e-07 8.88258 0.632142 7.75736 1.75736C6.63214 2.88258 6 4.4087 6 6V39C6 39.7957 6.31607 40.5587 6.87868 41.1213C7.44129 41.6839 8.20435 42 9 42C9.79565 42 10.5587 41.6839 11.1213 41.1213C11.6839 40.5587 12 39.7957 12 39V6H45V24C45 24.7956 45.3161 25.5587 45.8787 26.1213C46.4413 26.6839 47.2043 27 48 27H66V72H57C56.2043 72 55.4413 72.3161 54.8787 72.8787C54.3161 73.4413 54 74.2044 54 75C54 75.7956 54.3161 76.5587 54.8787 77.1213C55.4413 77.6839 56.2043 78 57 78H66C67.5913 78 69.1174 77.3679 70.2426 76.2426C71.3679 75.1174 72 73.5913 72 72V24C72.0003 23.6059 71.923 23.2156 71.7724 22.8515C71.6218 22.4873 71.401 22.1563 71.1225 21.8775ZM51 10.2413L61.7588 21H51V10.2413ZM31.5 39C27.6502 39 23.8866 40.1395 20.6833 42.275C17.4801 44.4105 14.9807 47.4464 13.5 51C9.91958 51 6.4858 52.4223 3.95406 54.9541C1.42232 57.4858 0 60.9196 0 64.5C0 68.0804 1.42232 71.5142 3.95406 74.0459C6.4858 76.5777 9.91958 78 13.5 78H31.5C36.6717 78 41.6316 75.9455 45.2886 72.2886C48.9455 68.6316 51 63.6717 51 58.5C51 53.3283 48.9455 48.3684 45.2886 44.7114C41.6316 41.0545 36.6717 39 31.5 39ZM31.5 72H13.5C11.633 72.003 9.83199 71.3096 8.44909 70.0553C7.06619 68.801 6.20083 67.076 6.02221 65.2176C5.84359 63.3591 6.36454 61.5009 7.48321 60.0061C8.60189 58.5114 10.2378 57.4876 12.0712 57.135C12.0533 57.9306 12.3522 58.7008 12.9022 59.2761C13.4521 59.8514 14.2081 60.1846 15.0038 60.2025C15.7994 60.2204 16.5696 59.9215 17.1448 59.3715C17.7201 58.8216 18.0533 58.0657 18.0713 57.27C18.1415 56.4992 18.2745 55.7354 18.4688 54.9863C18.511 54.8637 18.5449 54.7384 18.57 54.6113C19.2908 52.2151 20.6633 50.0664 22.5344 48.4051C24.4055 46.7437 26.7014 45.6351 29.166 45.2029C31.6306 44.7707 34.1668 45.032 36.4915 45.9576C38.8163 46.8832 40.838 48.4366 42.3311 50.4445C43.8241 52.4525 44.7298 54.8358 44.9469 57.3286C45.164 59.8214 44.684 62.3254 43.5606 64.5612C42.4371 66.7971 40.7144 68.6767 38.5847 69.9902C36.4551 71.3038 34.0022 71.9996 31.5 72Z" fill="#4E85E3"/>
</svg>
