<svg width="28" height="28" viewBox="0 0 28 28" fill="none" xmlns="http://www.w3.org/2000/svg">
<path d="M18.375 12.0312H23.625C24.0311 12.0312 24.4206 11.8699 24.7078 11.5828C24.9949 11.2956 25.1562 10.9061 25.1562 10.5V5.25C25.1562 4.84389 24.9949 4.45441 24.7078 4.16724C24.4206 3.88008 24.0311 3.71875 23.625 3.71875H18.375C17.9689 3.71875 17.5794 3.88008 17.2922 4.16724C17.0051 4.45441 16.8438 4.84389 16.8438 5.25V7.21875H15.75C14.8798 7.21875 14.0452 7.56445 13.4298 8.17981C12.8145 8.79516 12.4688 9.62976 12.4688 10.5V13.3438H8.53125V12.25C8.53125 11.8439 8.36992 11.4544 8.08276 11.1672C7.79559 10.8801 7.40611 10.7188 7 10.7188H3.5C3.09389 10.7188 2.70441 10.8801 2.41724 11.1672C2.13008 11.4544 1.96875 11.8439 1.96875 12.25V15.75C1.96875 16.1561 2.13008 16.5456 2.41724 16.8328C2.70441 17.1199 3.09389 17.2812 3.5 17.2812H7C7.40611 17.2812 7.79559 17.1199 8.08276 16.8328C8.36992 16.5456 8.53125 16.1561 8.53125 15.75V14.6562H12.4688V17.5C12.4688 18.3702 12.8145 19.2048 13.4298 19.8202C14.0452 20.4355 14.8798 20.7812 15.75 20.7812H16.8438V22.75C16.8438 23.1561 17.0051 23.5456 17.2922 23.8328C17.5794 24.1199 17.9689 24.2812 18.375 24.2812H23.625C24.0311 24.2812 24.4206 24.1199 24.7078 23.8328C24.9949 23.5456 25.1562 23.1561 25.1562 22.75V17.5C25.1562 17.0939 24.9949 16.7044 24.7078 16.4172C24.4206 16.1301 24.0311 15.9688 23.625 15.9688H18.375C17.9689 15.9688 17.5794 16.1301 17.2922 16.4172C17.0051 16.7044 16.8438 17.0939 16.8438 17.5V19.4688H15.75C15.2279 19.4688 14.7271 19.2613 14.3579 18.8921C13.9887 18.5229 13.7812 18.0221 13.7812 17.5V10.5C13.7812 9.97786 13.9887 9.4771 14.3579 9.10788C14.7271 8.73867 15.2279 8.53125 15.75 8.53125H16.8438V10.5C16.8438 10.9061 17.0051 11.2956 17.2922 11.5828C17.5794 11.8699 17.9689 12.0312 18.375 12.0312ZM7.21875 15.75C7.21875 15.808 7.1957 15.8637 7.15468 15.9047C7.11366 15.9457 7.05802 15.9688 7 15.9688H3.5C3.44198 15.9688 3.38634 15.9457 3.34532 15.9047C3.3043 15.8637 3.28125 15.808 3.28125 15.75V12.25C3.28125 12.192 3.3043 12.1363 3.34532 12.0953C3.38634 12.0543 3.44198 12.0312 3.5 12.0312H7C7.05802 12.0312 7.11366 12.0543 7.15468 12.0953C7.1957 12.1363 7.21875 12.192 7.21875 12.25V15.75ZM18.1562 17.5C18.1562 17.442 18.1793 17.3863 18.2203 17.3453C18.2613 17.3043 18.317 17.2812 18.375 17.2812H23.625C23.683 17.2812 23.7387 17.3043 23.7797 17.3453C23.8207 17.3863 23.8438 17.442 23.8438 17.5V22.75C23.8438 22.808 23.8207 22.8637 23.7797 22.9047C23.7387 22.9457 23.683 22.9688 23.625 22.9688H18.375C18.317 22.9688 18.2613 22.9457 18.2203 22.9047C18.1793 22.8637 18.1562 22.808 18.1562 22.75V17.5ZM18.1562 5.25C18.1562 5.19198 18.1793 5.13634 18.2203 5.09532C18.2613 5.0543 18.317 5.03125 18.375 5.03125H23.625C23.683 5.03125 23.7387 5.0543 23.7797 5.09532C23.8207 5.13634 23.8438 5.19198 23.8438 5.25V10.5C23.8438 10.558 23.8207 10.6137 23.7797 10.6547C23.7387 10.6957 23.683 10.7188 23.625 10.7188H18.375C18.317 10.7188 18.2613 10.6957 18.2203 10.6547C18.1793 10.6137 18.1562 10.558 18.1562 10.5V5.25Z" fill="black"/>
</svg>
