<svg width="28" height="28" viewBox="0 0 28 28" fill="none" xmlns="http://www.w3.org/2000/svg">
<path d="M25.0217 5.50594C24.9043 5.23345 24.7092 5.0016 24.4608 4.83936C24.2124 4.67712 23.9217 4.59169 23.625 4.59376H4.375C4.07857 4.59432 3.78867 4.68092 3.5405 4.84304C3.29232 5.00516 3.09654 5.23582 2.97691 5.50705C2.85728 5.77827 2.81895 6.07838 2.86656 6.37097C2.91418 6.66355 3.0457 6.93603 3.24516 7.15532L3.25172 7.16297L10.6597 15.0719C10.6977 15.1125 10.7188 15.1661 10.7188 15.2217V23.625C10.7189 23.9022 10.7942 24.1741 10.9367 24.4118C11.0792 24.6495 11.2836 24.844 11.528 24.9747C11.7724 25.1054 12.0477 25.1673 12.3245 25.1538C12.6013 25.1403 12.8693 25.052 13.0998 24.8981L16.5998 22.5652C16.8095 22.4253 16.9814 22.2358 17.1003 22.0135C17.2192 21.7912 17.2813 21.543 17.2813 21.2909V15.2217C17.2812 15.1661 17.3023 15.1125 17.3403 15.0719L24.7548 7.15532C24.9565 6.93707 25.0894 6.66421 25.1369 6.37086C25.1844 6.0775 25.1443 5.77666 25.0217 5.50594ZM23.7902 6.26501L16.3822 14.175C16.1158 14.4584 15.9679 14.8328 15.9688 15.2217V21.2909C15.9689 21.3271 15.96 21.3626 15.943 21.3945C15.9261 21.4264 15.9015 21.4536 15.8714 21.4736L12.3714 23.8066C12.3385 23.8285 12.3002 23.8412 12.2607 23.8431C12.2212 23.845 12.1819 23.8362 12.147 23.8176C12.1121 23.799 12.0829 23.7712 12.0625 23.7373C12.0421 23.7034 12.0313 23.6646 12.0313 23.625V15.2217C12.0316 14.8326 11.8838 14.458 11.6178 14.1739L4.21422 6.26938C4.18665 6.23801 4.16864 6.1994 4.16231 6.15812C4.15598 6.11683 4.1616 6.0746 4.17851 6.03641C4.19542 5.99823 4.22291 5.96568 4.25773 5.94261C4.29255 5.91955 4.33324 5.90693 4.375 5.90626H23.625C23.6677 5.90475 23.7098 5.91643 23.7456 5.93972C23.7815 5.96301 23.8092 5.99677 23.8252 6.03641C23.8432 6.07356 23.8495 6.11533 23.8433 6.15617C23.837 6.197 23.8185 6.23496 23.7902 6.26501Z" fill="black"/>
</svg>
