<svg width="28" height="28" viewBox="0 0 28 28" fill="none" xmlns="http://www.w3.org/2000/svg">
<path d="M18.75 17.5C18.75 17.6989 18.671 17.8897 18.5303 18.0303C18.3897 18.171 18.1989 18.25 18 18.25H10C9.80109 18.25 9.61032 18.171 9.46967 18.0303C9.32902 17.8897 9.25 17.6989 9.25 17.5C9.25 17.3011 9.32902 17.1103 9.46967 16.9697C9.61032 16.829 9.80109 16.75 10 16.75H18C18.1989 16.75 18.3897 16.829 18.5303 16.9697C18.671 17.1103 18.75 17.3011 18.75 17.5ZM18 12.75H10C9.80109 12.75 9.61032 12.829 9.46967 12.9697C9.32902 13.1103 9.25 13.3011 9.25 13.5C9.25 13.6989 9.32902 13.8897 9.46967 14.0303C9.61032 14.171 9.80109 14.25 10 14.25H18C18.1989 14.25 18.3897 14.171 18.5303 14.0303C18.671 13.8897 18.75 13.6989 18.75 13.5C18.75 13.3011 18.671 13.1103 18.5303 12.9697C18.3897 12.829 18.1989 12.75 18 12.75ZM24.75 4.50002V25.5C24.75 25.9641 24.5656 26.4093 24.2374 26.7375C23.9092 27.0656 23.4641 27.25 23 27.25H5C4.53587 27.25 4.09075 27.0656 3.76256 26.7375C3.43437 26.4093 3.25 25.9641 3.25 25.5V4.50002C3.25 4.03589 3.43437 3.59077 3.76256 3.26258C4.09075 2.93439 4.53587 2.75002 5 2.75002H9.64625C10.185 2.12265 10.853 1.61912 11.6044 1.27392C12.3559 0.92872 13.1731 0.75 14 0.75C14.8269 0.75 15.6441 0.92872 16.3956 1.27392C17.147 1.61912 17.815 2.12265 18.3538 2.75002H23C23.4641 2.75002 23.9092 2.93439 24.2374 3.26258C24.5656 3.59077 24.75 4.03589 24.75 4.50002ZM9.75 6.50002V6.75002H18.25V6.50002C18.25 5.37285 17.8022 4.29184 17.0052 3.49481C16.2082 2.69779 15.1272 2.25002 14 2.25002C12.8728 2.25002 11.7918 2.69779 10.9948 3.49481C10.1978 4.29184 9.75 5.37285 9.75 6.50002ZM23.25 4.50002C23.25 4.43371 23.2237 4.37013 23.1768 4.32324C23.1299 4.27636 23.0663 4.25002 23 4.25002H19.2913C19.5947 4.96131 19.7507 5.72672 19.75 6.50002V7.50002C19.75 7.69893 19.671 7.8897 19.5303 8.03035C19.3897 8.171 19.1989 8.25002 19 8.25002H9C8.80109 8.25002 8.61032 8.171 8.46967 8.03035C8.32902 7.8897 8.25 7.69893 8.25 7.50002V6.50002C8.24929 5.72672 8.40535 4.96131 8.70875 4.25002H5C4.9337 4.25002 4.87011 4.27636 4.82322 4.32324C4.77634 4.37013 4.75 4.43371 4.75 4.50002V25.5C4.75 25.5663 4.77634 25.6299 4.82322 25.6768C4.87011 25.7237 4.9337 25.75 5 25.75H23C23.0663 25.75 23.1299 25.7237 23.1768 25.6768C23.2237 25.6299 23.25 25.5663 23.25 25.5V4.50002Z" fill="black"/>
</svg>
